<svg id="Capa_1" data-name="Capa 1" xmlns="http://www.w3.org/2000/svg" viewBox="0 0 279.66 303.59"><defs><style>.cls-1{fill:#a05341;}.cls-2{fill:#d8925d;}.cls-3{fill:#eaa86e;}.cls-4{fill:#fde0be;}.cls-5{fill:#1e1e1e;}.cls-6{fill:#fff;}</style></defs><path class="cls-1" d="M205.27,232.82s31.24-6.5,44.48-17.75,3.5,49.36-44.11,46.74C156.53,259.1,205.27,232.82,205.27,232.82Z" transform="translate(-4.17 -4.26)"/><path class="cls-2" d="M220.34,214.66v36a37.46,37.46,0,0,1-37.46,37.46H109.1a37.46,37.46,0,0,1-37.46-37.46v-36a27.21,27.21,0,0,1,27.2-27.21h94.29A27.21,27.21,0,0,1,220.34,214.66Z" transform="translate(-4.17 -4.26)"/><path class="cls-1" d="M202,23.68c5.14-7.19,20.9-.71,26.6,6.05A93.44,93.44,0,0,1,247,65.1c12.37,45.81,28.12,47.24,34.87,76.49S279,213,243,204C212.42,196.36,179.57,55,202,23.68Z" transform="translate(-4.17 -4.26)"/><path class="cls-1" d="M89.06,23.68c-4.57-11.54-24.79-.51-32.29,9.37A93.81,93.81,0,0,0,41.05,65.1c-12.37,45.81-28.12,47.24-34.87,76.49S9,213,45,204C73.82,196.8,104.9,63.66,89.06,23.68Z" transform="translate(-4.17 -4.26)"/><path class="cls-3" d="M219.44,133.14c-.4,12-.93,24.49-1.59,37.13-3.38,64.67-81.16,53.42-112.09,46.11-30.2-7.14-31-52.49-30.47-67.3.11-2.94.28-4.68.28-4.68s-1.34-6.6-3-16.59c-3.53-21.73-8.4-59.52-3.78-80.7C75.57,16.18,108.21,6,149.23,4.39c56.24-2.27,65.24,27.53,68.62,33.72C220.56,43.09,221.09,83.75,219.44,133.14Z" transform="translate(-4.17 -4.26)"/><path class="cls-4" d="M219.44,133.14c-.4,12-.93,24.49-1.59,37.13-3.38,64.67-81.16,53.42-112.09,46.11-30.2-7.14-31-52.49-30.47-67.3.11-2.94.28-4.68.28-4.68s-1.34-6.6-3-16.59c7-.25,50.36-2.67,55.64-25.4,5.75-24.75,10.73-37.32,22-36.07s14.1,29.25,16.27,37.82C169,114.08,178,124.4,202.73,120.9,209.58,119.93,215.08,125.12,219.44,133.14Z" transform="translate(-4.17 -4.26)"/><path class="cls-5" d="M148.11,143.9c-8.74,1.5-22.12-10.5-26.87-1s3.64,26,26.5,26c18.49,0,25.59-12.24,26.59-20.74C175.84,135.27,159.65,141.92,148.11,143.9Z" transform="translate(-4.17 -4.26)"/><ellipse class="cls-5" cx="183.52" cy="90.81" rx="6.89" ry="14.16"/><ellipse class="cls-5" cx="101.58" cy="90.81" rx="6.89" ry="14.16"/><path class="cls-5" d="M145,181.32a1.76,1.76,0,0,1-1.75-1.75v-15a1.75,1.75,0,0,1,3.5,0v15A1.75,1.75,0,0,1,145,181.32Z" transform="translate(-4.17 -4.26)"/><path class="cls-5" d="M165.16,189.2c-10.74,0-17.17-3.88-19.95-6.07-4.85,5.23-17.75,6-19.36,6.06a1.75,1.75,0,0,1-.16-3.5c5.9-.27,15.9-2.12,17.62-5.91a1.74,1.74,0,0,1,1.33-1,1.79,1.79,0,0,1,1.57.57c0,.06,6.3,6.7,20,6.35a1.75,1.75,0,0,1,.09,3.5Z" transform="translate(-4.17 -4.26)"/><circle class="cls-5" cx="179.63" cy="161.64" r="2.99"/><path class="cls-5" d="M173.35,174.13a2.07,2.07,0,1,1-2.06-2.06A2.06,2.06,0,0,1,173.35,174.13Z" transform="translate(-4.17 -4.26)"/><path class="cls-5" d="M191.07,174.51a1.69,1.69,0,1,1-1.69-1.69A1.69,1.69,0,0,1,191.07,174.51Z" transform="translate(-4.17 -4.26)"/><circle class="cls-5" cx="101.96" cy="161.64" r="2.99"/><circle class="cls-5" cx="114.47" cy="169.87" r="2.06"/><path class="cls-5" d="M98.86,174.51a1.69,1.69,0,1,0,1.69-1.69A1.69,1.69,0,0,0,98.86,174.51Z" transform="translate(-4.17 -4.26)"/><path class="cls-4" d="M180.8,266.65v21.46H109.13V266.65a35.84,35.84,0,1,1,71.67,0Z" transform="translate(-4.17 -4.26)"/><path class="cls-1" d="M198.83,307.86H167.72a10.13,10.13,0,0,1-10.13-10.13h0a20.25,20.25,0,0,1,20.25-20.24h10.87A20.25,20.25,0,0,1,209,297.73h0A10.13,10.13,0,0,1,198.83,307.86Z" transform="translate(-4.17 -4.26)"/><path class="cls-1" d="M126.68,307.86H95.56a10.12,10.12,0,0,1-10.12-10.13h0a20.24,20.24,0,0,1,20.24-20.24h10.87a20.25,20.25,0,0,1,20.25,20.24h0A10.12,10.12,0,0,1,126.68,307.86Z" transform="translate(-4.17 -4.26)"/><path class="cls-6" d="M189.33,31.89c7.31,3.87,7.79,14.71,9.3,21.89,1.31,6.24,10.87,3.6,9.56-2.64-2.14-10.16-3.65-22.41-13.86-27.81-5.63-3-10.65,5.57-5,8.56Z" transform="translate(-4.17 -4.26)"/><path class="cls-6" d="M204.52,75c6.38,0,6.39-9.91,0-9.91s-6.39,9.91,0,9.91Z" transform="translate(-4.17 -4.26)"/><path class="cls-6" d="M198.46,184.61c-.07.54-1.52,2.22-1.88,2.79a27.72,27.72,0,0,1-2.22,3.06,14.32,14.32,0,0,1-5.43,4c-2.46,1.06-3,4.68-1.78,6.78,1.49,2.55,4.31,2.84,6.78,1.78a22.55,22.55,0,0,0,8.71-7.12c2.64-3.37,5.19-7,5.73-11.29.34-2.67-2.51-5-5-5-3,0-4.63,2.29-5,5Z" transform="translate(-4.17 -4.26)"/><path class="cls-6" d="M175.65,210.75c6.38,0,6.39-9.92,0-9.92s-6.39,9.92,0,9.92Z" transform="translate(-4.17 -4.26)"/><path class="cls-6" d="M251.32,125.41c1.47.64,2.93,4.06,3.74,5.49a56.48,56.48,0,0,1,3,6A60.63,60.63,0,0,1,262,151.42c.4,2.65,3.74,4.11,6.1,3.46,2.83-.78,3.86-3.44,3.46-6.1a67.14,67.14,0,0,0-5.23-17.52,60.87,60.87,0,0,0-4-7.52c-1.52-2.43-3.27-5.71-6-6.89-2.46-1.06-5.31-.73-6.78,1.78-1.22,2.09-.69,5.72,1.78,6.78Z" transform="translate(-4.17 -4.26)"/><path class="cls-6" d="M261.61,170v.56a5.6,5.6,0,0,0,1.45,3.51,3.73,3.73,0,0,0,1.6,1,3.8,3.8,0,0,0,1.91.43l1.32-.18a5,5,0,0,0,2.18-1.27l.78-1a5,5,0,0,0,.68-2.5V170a3.8,3.8,0,0,0-.43-1.91,3.66,3.66,0,0,0-1-1.6,5.54,5.54,0,0,0-3.5-1.45l-1.32.18a5,5,0,0,0-2.19,1.27c-.25.34-.51.67-.77,1a4.87,4.87,0,0,0-.68,2.5Z" transform="translate(-4.17 -4.26)"/><path class="cls-6" d="M200.5,226.67c3.35,3.21,2.32,10.93,2.24,15.11-.12,6.38,9.8,6.39,9.91,0,.13-7.24.54-16.68-5.14-22.12-4.61-4.41-11.63,2.59-7,7Z" transform="translate(-4.17 -4.26)"/><path class="cls-6" d="M241.26,235.24c6.38,0,6.39-9.91,0-9.91s-6.39,9.91,0,9.91Z" transform="translate(-4.17 -4.26)"/><path class="cls-6" d="M189,291.41a4.5,4.5,0,0,1,1.47.45c-.58-.26-.62-.28-.12,0,.24.11.46.23.69.35a5.64,5.64,0,0,1,1.3.83l.46.48a5,5,0,0,0,7-7,18.36,18.36,0,0,0-8.18-4.62,5,5,0,1,0-2.63,9.56Z" transform="translate(-4.17 -4.26)"/><path class="cls-6" d="M153.34,251.68c5.92,3.57,8,10.26,8.91,16.75.37,2.65,3.75,4.1,6.1,3.46,2.85-.78,3.84-3.44,3.46-6.1-1.3-9.11-5.36-17.78-13.46-22.68-5.48-3.3-10.47,5.27-5,8.57Z" transform="translate(-4.17 -4.26)"/><path class="cls-6" d="M159.65,150a1.6,1.6,0,0,1-.1.42c.16-.4.33-.79.5-1.19a4.08,4.08,0,0,1-.34.57l.77-1a33.53,33.53,0,0,1-2.85,2.74,5,5,0,0,0,0,7,5.06,5.06,0,0,0,7,0c1.76-1.65,4.13-3.38,4.57-5.91a5.35,5.35,0,0,0-.5-3.82,5,5,0,0,0-6.78-1.78,4.88,4.88,0,0,0-2.28,3Z" transform="translate(-4.17 -4.26)"/></svg>